<?xml version="1.0" encoding="UTF-8"?>
<svg version="1.1" xmlns="http://www.w3.org/2000/svg" width="256" height="256">
<path d="M0 0 C1.1859375 0.50684326 2.371875 1.01368652 3.59375 1.53588867 C5.95204799 2.54939988 8.30033745 3.58659809 10.63671875 4.6496582 C18.06896237 7.84462987 22.57582258 8.54600757 30.25390625 6.08203125 C31.79498927 5.72300971 33.33933168 5.3776719 34.88671875 5.046875 C37.13904235 4.53356381 39.3904624 4.01684679 41.640625 3.49414062 C65.39831438 -1.89782192 91.18369862 -0.27470463 114.23828125 7.41015625 C120.57009173 8.8208705 126.03655278 6.14219411 131.79296875 3.73828125 C132.59624603 3.4091272 133.39952332 3.07997314 134.22714233 2.74084473 C136.78018129 1.69375281 139.32970145 0.63841941 141.87890625 -0.41796875 C144.43573095 -1.47312806 146.99327133 -2.52647596 149.55209351 -3.57678223 C151.14046932 -4.22919542 152.72762305 -4.88459395 154.31338501 -5.54333496 C155.39503433 -5.98884705 155.39503433 -5.98884705 156.49853516 -6.44335938 C157.44401718 -6.83521423 157.44401718 -6.83521423 158.40859985 -7.23498535 C166.88966011 -10.37398892 175.9024959 -9.86003638 184.0703125 -6.109375 C191.08381568 -2.28268722 195.72724725 3.50205424 198.25390625 11.08203125 C198.35145482 12.65514154 198.39310937 14.23202425 198.40107727 15.80813599 C198.41181023 17.26677567 198.41181023 17.26677567 198.42276001 18.75488281 C198.42544891 19.82077637 198.42813782 20.88666992 198.4309082 21.98486328 C198.4374794 23.10891571 198.4440506 24.23296814 198.45082092 25.39108276 C198.47058191 29.12400377 198.48222858 32.85688431 198.4921875 36.58984375 C198.49626303 37.86771633 198.50033855 39.14558891 198.50453758 40.46218491 C198.52326518 46.53893414 198.53782039 52.61566321 198.54614955 58.69243538 C198.55587228 65.66872247 198.58205468 72.64468804 198.62265044 79.62086213 C198.65673299 85.69007437 198.66831836 91.75915433 198.67235374 97.82845688 C198.67719387 100.39339233 198.68873333 102.95832502 198.70739174 105.52319717 C198.92368878 137.25267611 191.09782708 164.30442155 168.84936523 187.70361328 C142.82226877 213.92252139 106.81996221 227.22355186 70.25390625 227.45703125 C33.48664801 227.22226716 -1.35559862 213.98620571 -27.74609375 188.08203125 C-51.50362144 163.85303634 -58.39494071 135.21376517 -58.3125 102.1796875 C-58.31774564 99.60476966 -58.32402554 97.02985375 -58.33128357 94.4549408 C-58.34163026 89.09021841 -58.33754125 83.72578759 -58.32250977 78.36108398 C-58.30552906 72.18553536 -58.32153538 66.01069062 -58.35373265 59.83521849 C-58.38374688 53.84810331 -58.38559614 47.86134408 -58.37623405 41.8741436 C-58.37541699 39.3453015 -58.38223317 36.81644443 -58.39700508 34.28764534 C-58.41450117 30.75382611 -58.39986798 27.2215042 -58.37719727 23.68774414 C-58.38888947 22.65636826 -58.40058167 21.62499237 -58.41262817 20.56236267 C-58.30470955 12.25876953 -55.86965008 5.90667777 -50.60546875 -0.5390625 C-34.14819094 -14.71060728 -17.82650447 -7.75076223 0 0 Z M-24.74609375 27.08203125 C-24.76944383 37.33224183 -24.78712282 47.5824459 -24.79790592 57.83267784 C-24.8030858 62.59419074 -24.81009249 67.3556852 -24.8215332 72.1171875 C-24.83253862 76.7272929 -24.83840726 81.33738078 -24.84097099 85.94749832 C-24.8427939 87.69100851 -24.84635192 89.43451793 -24.85182381 91.17802048 C-24.87852323 100.05239028 -24.79807643 108.91036357 -24.37280273 117.77587891 C-24.34337365 118.4892359 -24.31394457 119.20259289 -24.2836237 119.93756676 C-23.25662793 138.50704043 -13.54347033 153.28465467 -0.74609375 166.08203125 C0.36765625 167.19578125 0.36765625 167.19578125 1.50390625 168.33203125 C22.72384713 188.30374032 50.94025754 194.11444537 79.12109375 193.265625 C91.58286139 192.53532191 103.9522605 189.34581146 115.25390625 184.08203125 C115.84478027 183.80907227 116.4356543 183.53611328 117.04443359 183.25488281 C136.01507028 174.32462211 153.29060968 159.22162529 160.76171875 139.1953125 C163.91353963 130.21087442 165.40674364 122.15750505 165.36743164 112.68017578 C165.36765068 111.28897774 165.36765068 111.28897774 165.36787415 109.86967468 C165.36718002 106.8180402 165.35941108 103.76646751 165.3515625 100.71484375 C165.34969654 98.59349603 165.34827348 96.47214787 165.34727478 94.35079956 C165.3434636 88.77773847 165.33364527 83.20470359 165.3225708 77.63165283 C165.31232659 71.94063675 165.30777071 66.24961641 165.30273438 60.55859375 C165.29202173 49.39972809 165.27496213 38.24088185 165.25390625 27.08203125 C162.71379515 28.02732659 160.17435183 28.97435344 157.63525391 29.92236328 C156.92325333 30.18712967 156.21125275 30.45189606 155.47767639 30.72468567 C151.32918655 32.27529363 147.22621015 33.89663015 143.15234375 35.63671875 C127.01935107 42.4793819 116.39590476 43.99617311 99.65234375 38.37109375 C90.11342248 35.37457981 80.44623034 34.71893418 70.50390625 34.76953125 C68.80210205 34.77581543 68.80210205 34.77581543 67.06591797 34.78222656 C55.84224684 34.93245084 45.76814547 36.3434233 35.19140625 40.26953125 C22.60669691 44.65586544 11.69409274 41.95151117 -0.12109375 36.83203125 C-1.90966797 36.09533203 -1.90966797 36.09533203 -3.734375 35.34375 C-9.56229044 32.92886791 -15.33732991 30.40729894 -21.06103516 27.75488281 C-22.75325537 26.95841997 -22.75325537 26.95841997 -24.74609375 27.08203125 Z " fill="#7F7F7F" transform="translate(57.74609375,18.91796875)"/>
<path d="M0 0 C5.07013177 3.67584553 9.57279055 7.75417554 11.0078125 14.03515625 C11.90078078 20.18143791 11.37111832 25.25727106 8.5 30.8125 C6.0625 33.6875 6.0625 33.6875 3.5 35.8125 C2.88511719 36.32425781 2.27023438 36.83601563 1.63671875 37.36328125 C-2.52670282 40.187101 -7.73599613 41.04121159 -12.71875 40.62890625 C-19.62893987 39.12726884 -24.55459962 35.58969341 -28.5 29.8125 C-31.22892192 23.96200551 -31.65975035 17.72006794 -29.8125 11.49609375 C-24.32934883 -0.54399237 -12.21110943 -4.14305499 0 0 Z " fill="#7F7F7F" transform="translate(96.5,121.1875)"/>
<path d="M0 0 C6.25086676 4.5318784 9.61250321 9.00894233 11.375 16.5625 C11.96416764 22.95742372 10.13378031 28.84358526 6.0625 33.75 C5.216875 34.430625 4.37125 35.11125 3.5 35.8125 C2.88511719 36.32296875 2.27023438 36.8334375 1.63671875 37.359375 C-2.52371586 40.18877477 -7.73577596 41.04122981 -12.71875 40.62890625 C-19.62893987 39.12726884 -24.55459962 35.58969341 -28.5 29.8125 C-31.22892192 23.96200551 -31.65975035 17.72006794 -29.8125 11.49609375 C-24.32934883 -0.54399237 -12.21110943 -4.14305499 0 0 Z " fill="#7F7F7F" transform="translate(179.5,121.1875)"/>
</svg>
