<?xml version="1.0" encoding="UTF-8" standalone="no"?>
<svg
   width="50"
   height="33.333"
   version="1.1"
   id="svg1"
   xmlns="http://www.w3.org/2000/svg"
   xmlns:svg="http://www.w3.org/2000/svg">
  <defs
     id="defs1" />
  <path
     d="m 25,0.806 v 2.79 h 0.8 v -2.79 z m 0,4.465 v 2.791 h 0.8 v -2.79 z m -2.043,3.902 -2.32,1.55 0.444,0.665 2.32,-1.55 -0.443,-0.665 z m 4.885,0 -0.444,0.665 2.32,1.55 0.445,-0.665 z M -0.4,10.61 v 2.79 h 0.8 v -2.79 z m 50,0 v 2.79 h 0.8 v -2.79 z m -30.356,1.042 -2.32,1.55 0.443,0.666 2.322,-1.55 -0.444,-0.666 z m 12.311,0 -0.444,0.665 2.32,1.55 0.445,-0.664 z m 3.783,2.566 -0.444,0.666 2.321,1.55 0.444,-0.666 z m -19.852,0.025 -2.32,1.55 0.444,0.665 2.32,-1.55 z M -0.4,15.013 v 2.79 h 0.8 v -2.79 z m 50,0 v 2.79 h 0.8 v -2.79 z m -50,4.465 v 2.79 h 0.8 v -2.79 z m 50,0 v 2.79 h 0.8 v -2.79 z m -47.158,3.901 -0.444,0.665 2.32,1.55 0.445,-0.665 z m 45.115,0 -2.32,1.55 0.443,0.666 2.322,-1.55 -0.444,-0.666 z m -41.402,2.481 -0.444,0.665 2.32,1.55 0.445,-0.665 z m 37.69,0 -2.322,1.55 0.444,0.665 2.321,-1.55 -0.444,-0.666 z m -33.908,2.564 -0.444,0.665 2.32,1.55 0.445,-0.665 z m 30.11,0.003 -2.321,1.55 0.444,0.666 2.321,-1.55 z M 25,29.737 v 2.79 h 0.8 v -2.79 z"
     stroke-width="1"
     stroke="none"
     fill="hsla(47,80.9%,61%,1)"
     id="path1"
     style="opacity:0.8" />
</svg>
