<?xml version="1.0" encoding="UTF-8" standalone="no"?>
<svg
   width="80"
   height="60"
   version="1.1"
   id="svg3"
   xmlns="http://www.w3.org/2000/svg"
   xmlns:svg="http://www.w3.org/2000/svg">
  <defs
     id="defs3" />
  <path
     d="M -20.133,4.568 C -13.178,4.932 -6.452,7.376 0,10 c 6.452,2.624 13.036,5.072 20,5 6.967,-0.072 13.56,-2.341 20,-5 6.44,-2.659 13.033,-4.928 20,-5 6.964,-0.072 13.548,2.376 20,5 6.452,2.624 13.178,5.068 20.133,5.432"
     stroke-width="1.5"
     stroke="hsla(47,80.9%,61%,1)"
     fill="none"
     id="path1" />
  <path
     d="M -20.133,24.568 C -13.178,24.932 -6.452,27.376 0,30 c 6.452,2.624 13.036,5.072 20,5 6.967,-0.072 13.56,-2.341 20,-5 6.44,-2.659 13.033,-4.928 20,-5 6.964,-0.072 13.548,2.376 20,5 6.452,2.624 13.178,5.068 20.133,5.432"
     stroke-width="1.5"
     stroke="hsla(4.1,89.6%,58.4%,1)"
     fill="none"
     id="path2" />
  <path
     d="M -20.133,44.568 C -13.178,44.932 -6.452,47.376 0,50 c 6.452,2.624 13.036,5.072 20,5 6.967,-0.072 13.56,-2.341 20,-5 6.44,-2.659 13.033,-4.928 20,-5 6.964,-0.072 13.548,2.376 20,5 6.452,2.624 13.178,5.068 20.133,5.432"
     stroke-width="1.5"
     stroke="#e48237ff"
     fill="none"
     id="path3" />
</svg>
